<?xml version="1.0" encoding="UTF-8" standalone="no"?><!-- Generator: Gravit.io --><svg xmlns="http://www.w3.org/2000/svg" xmlns:xlink="http://www.w3.org/1999/xlink" style="isolation:isolate" viewBox="362.549 469.391 133.095 87.218" width="133.095pt" height="87.218pt"><g><path d=" M 436.83 508.232 C 436.042 511.168 435.309 514.093 434.617 517.012 L 434.617 517.012 L 434.617 517.012 Q 433.035 523.685 431.906 529.351 L 431.906 529.351 L 431.906 529.351 Q 430.776 535.017 430.27 538.717 L 430.27 538.717 L 430.27 538.717 Q 429.737 539.008 429.565 539.136 L 429.565 539.136 L 429.565 539.136 Q 429.392 539.265 428.92 539.349 L 428.92 539.349 L 428.92 539.349 Q 426.368 539.807 425.022 536.927 L 425.022 536.927 L 425.022 536.927 Q 423.676 534.047 422.692 528.566 L 422.692 528.566 L 422.692 528.566 Q 421.997 524.691 421.275 519.309 L 421.275 519.309 L 421.275 519.309 Q 420.686 514.918 420.088 510.282 L 426.071 504.149 L 426.071 504.149 C 426.076 504.181 426.08 504.216 426.084 504.252 L 426.084 504.252 L 426.084 504.252 Q 426.846 510.944 427.527 517.455 L 427.527 517.455 L 427.527 517.455 Q 428.208 523.966 428.969 529.293 L 428.969 529.293 L 428.969 529.293 Q 429.446 523.256 431.064 516.235 L 431.064 516.235 L 431.064 516.235 Q 432.34 510.696 434.009 505.12 L 436.83 508.232 L 436.83 508.232 Z " fill="rgb(223,223,223)"/><path d=" M 435.853 511.286 Q 436.446 508.98 437.088 506.666 L 437.088 506.666 L 437.088 506.666 Q 438.954 499.942 440.973 494.068 L 440.973 494.068 L 440.973 494.068 Q 442.991 488.194 445.105 484.205 L 445.105 484.205 L 445.105 484.205 Q 443.912 498.759 443.345 512.177 L 443.345 512.177 L 443.345 512.177 Q 442.778 525.595 444.796 536.841 L 444.796 536.841 L 444.796 536.841 Q 445.492 540.716 446.474 542.93 L 446.474 542.93 L 446.474 542.93 Q 447.457 545.144 449.345 545.878 L 449.345 545.878 L 449.345 545.878 Q 451.232 546.612 454.446 546.036 L 454.446 546.036 L 454.446 546.036 Q 453.779 544.497 453.287 543.658 L 453.287 543.658 L 453.287 543.658 Q 452.796 542.82 452.403 541.72 L 452.403 541.72 L 452.403 541.72 Q 452.01 540.619 451.637 538.54 L 451.637 538.54 L 451.637 538.54 Q 450.823 534.004 450.383 527.205 L 450.383 527.205 L 450.383 527.205 Q 449.943 520.407 449.862 512.617 L 449.862 512.617 L 449.862 512.617 Q 449.781 504.827 449.979 497.231 L 449.979 497.231 L 449.979 497.231 Q 450.176 489.636 450.654 483.599 L 450.654 483.599 L 450.654 483.599 Q 451.017 478.559 451.597 474.992 L 451.597 474.992 L 451.597 474.992 Q 452.176 471.425 452.532 469.605 L 452.532 469.605 L 452.532 469.605 Q 450.712 469.248 449.389 469.486 L 449.389 469.486 L 449.389 469.486 Q 447.877 469.757 447.11 470.919 L 447.11 470.919 L 447.11 470.919 Q 446.343 472.081 445.359 474.209 L 445.359 474.209 L 445.359 474.209 Q 444.47 476.32 442.57 480.953 L 442.57 480.953 L 442.57 480.953 Q 440.67 485.586 438.38 491.85 L 438.38 491.85 L 438.38 491.85 Q 436.09 498.115 433.897 505.191 L 433.897 505.191 L 433.897 505.191 C 433.588 506.187 433.288 507.182 433.031 508.173 L 435.853 511.286 L 435.853 511.286 Z  M 474.697 538.206 L 474.697 538.206 L 474.697 538.206 Q 468.932 539.241 465.482 536.592 L 465.482 536.592 L 465.482 536.592 Q 462.031 533.943 461.2 529.312 L 461.2 529.312 L 461.2 529.312 Q 460.436 525.06 461.715 519.952 L 461.715 519.952 L 461.715 519.952 Q 462.993 514.845 465.791 510.051 L 465.791 510.051 L 465.791 510.051 Q 468.589 505.256 472.375 501.894 L 472.375 501.894 L 472.375 501.894 Q 476.161 498.532 480.32 497.785 L 480.32 497.785 L 480.32 497.785 Q 482.493 497.395 484.54 498.199 L 484.54 498.199 L 484.54 498.199 Q 486.586 499.002 487.214 502.499 L 487.214 502.499 L 487.214 502.499 Q 487.859 506.09 486.3 509.638 L 486.3 509.638 L 486.3 509.638 Q 484.742 513.186 481.734 516.262 L 481.734 516.262 L 481.734 516.262 Q 478.725 519.338 474.894 521.636 L 474.894 521.636 L 474.894 521.636 Q 471.063 523.933 467.067 525.04 L 467.067 525.04 L 467.067 525.04 Q 467.047 526.019 467.105 526.887 L 467.105 526.887 L 467.105 526.887 Q 467.163 527.754 467.299 528.51 L 467.299 528.51 L 467.299 528.51 Q 467.554 529.928 468.139 531.286 L 468.139 531.286 L 468.139 531.286 Q 468.724 532.645 469.787 533.673 L 469.787 533.673 L 469.787 533.673 Q 470.849 534.702 472.433 535.101 L 472.433 535.101 L 472.433 535.101 Q 474.016 535.499 476.19 535.109 L 476.19 535.109 L 476.19 535.109 Q 480.254 534.38 483.808 531.352 L 483.808 531.352 L 483.808 531.352 Q 487.362 528.324 490.085 523.933 L 490.085 523.933 L 490.085 523.933 Q 492.809 519.542 494.358 514.581 L 494.358 514.581 L 495.645 515.229 L 495.645 515.229 Q 494.111 521.357 490.935 526.219 L 490.935 526.219 L 490.935 526.219 Q 487.759 531.082 483.591 534.22 L 483.591 534.22 L 483.591 534.22 Q 479.423 537.358 474.697 538.206 Z  M 467.217 523.16 L 467.217 523.16 L 467.217 523.16 Q 469.616 521.851 472.532 519.621 L 472.532 519.621 L 472.532 519.621 Q 475.449 517.39 478.019 514.587 L 478.019 514.587 L 478.019 514.587 Q 480.589 511.785 482.034 508.696 L 482.034 508.696 L 482.034 508.696 Q 483.48 505.608 482.937 502.584 L 482.937 502.584 L 482.937 502.584 Q 482.75 501.544 482.271 501.045 L 482.271 501.045 L 482.271 501.045 Q 481.791 500.546 480.562 500.766 L 480.562 500.766 L 480.562 500.766 Q 478.294 501.173 476.056 503.38 L 476.056 503.38 L 476.056 503.38 Q 473.818 505.586 471.964 508.845 L 471.964 508.845 L 471.964 508.845 Q 470.11 512.105 468.831 515.846 L 468.831 515.846 L 468.831 515.846 Q 467.551 519.588 467.217 523.16 Z " fill="rgb(223,223,223)"/><g><rect x="362.549" y="515.337" width="96.107" height="20.123" transform="matrix(1,0,0,1,0,0)" fill="rgb(0,0,0)"/><g clip-path="url(#_clipPath_86GcAwC5LzwbxG408rIOBwMME9SdO5pf)"><text transform="matrix(1.334,0,0,1.334,369.208,528.136)" style="font-family:'Montserrat';font-weight:400;font-size:10px;font-style:normal;font-variant-ligatures:none;letter-spacing:5;fill:#ffffff;stroke:none;">elaina</text></g><defs><clipPath id="_clipPath_86GcAwC5LzwbxG408rIOBwMME9SdO5pf"><rect x="0" y="0" width="63" height="15.089" transform="matrix(1.334,0,0,1.334,369.208,515.226)"/></clipPath></defs></g><path d=" M 426.571 506.937 Q 425.814 500.301 424.77 494.488 L 424.77 494.488 L 424.77 494.488 Q 423.227 485.888 421.326 481.546 L 421.326 481.546 L 421.326 481.546 Q 419.425 477.205 416.985 475.838 L 416.985 475.838 L 416.985 475.838 Q 414.544 474.471 411.426 475.031 L 411.426 475.031 L 411.426 475.031 Q 408.307 475.591 405.275 477.452 L 405.275 477.452 L 405.275 477.452 Q 402.244 479.313 399.957 482.065 L 399.957 482.065 L 399.957 482.065 Q 397.671 484.816 396.478 487.957 L 396.478 487.957 L 396.478 487.957 Q 395.286 491.098 395.846 494.216 L 395.846 494.216 L 395.846 494.216 Q 396.117 495.729 396.968 497.478 L 396.968 497.478 L 396.968 497.478 Q 397.818 499.228 399.134 500.309 L 399.134 500.309 L 399.134 500.309 Q 400.45 501.389 402.246 501.067 L 402.246 501.067 L 402.246 501.067 Q 402.033 500.423 401.867 499.769 L 401.867 499.769 L 401.867 499.769 Q 401.701 499.116 401.531 498.171 L 401.531 498.171 L 401.531 498.171 Q 400.836 494.296 401.399 490.098 L 401.399 490.098 L 401.399 490.098 Q 401.962 485.9 404.078 482.74 L 404.078 482.74 L 404.078 482.74 Q 406.194 479.58 410.163 478.867 L 410.163 478.867 L 410.163 478.867 Q 412.148 478.511 412.889 479.11 L 412.889 479.11 L 412.889 479.11 Q 413.631 479.708 413.817 480.748 L 413.817 480.748 L 413.817 480.748 Q 414.004 481.787 413.868 482.934 L 413.868 482.934 L 413.868 482.934 Q 413.732 484.08 413.568 484.792 L 413.568 484.792 L 413.568 484.792 Q 410.109 498.68 407.02 511.088 L 407.02 511.088 L 407.02 511.088 Q 403.93 523.495 401.439 533.258 L 401.439 533.258 L 401.439 533.258 Q 398.947 543.022 397.405 549.103 L 397.405 549.103 L 397.405 549.103 Q 395.862 555.184 395.533 556.609 L 395.533 556.609 L 395.533 556.609 Q 398.085 556.151 400.086 552.085 L 400.086 552.085 L 400.086 552.085 Q 402.088 548.019 404.147 539.65 L 404.147 539.65 L 404.147 539.65 Q 406.205 531.281 409.078 517.937 L 409.078 517.937 L 409.078 517.937 Q 411.951 504.593 416.357 485.657 L 416.357 485.657 L 416.357 485.657 Q 416.621 486.586 416.889 487.806 L 416.889 487.806 L 416.889 487.806 Q 417.157 489.026 417.496 490.916 L 417.496 490.916 L 417.496 490.916 Q 418.174 494.696 418.879 499.984 L 418.879 499.984 L 418.879 499.984 Q 419.585 505.272 420.319 510.993 L 420.319 510.993 L 420.319 510.993 C 420.409 511.696 420.499 512.395 420.588 513.07 L 426.571 506.937 L 426.571 506.937 Z " fill="rgb(223,223,223)"/></g></svg>