<?xml version="1.0" encoding="UTF-8" standalone="no"?><!-- Generator: Gravit.io --><svg xmlns="http://www.w3.org/2000/svg" xmlns:xlink="http://www.w3.org/1999/xlink" style="isolation:isolate" viewBox="805 151.5 180 43.5" width="180pt" height="43.5pt"><g><clipPath id="_clipPath_FbTsy3p2tUp3iX0KFmrAHhmvMsdUtsoR"><rect x="805" y="151.5" width="180" height="43.5" transform="matrix(1,0,0,1,0,0)" fill="rgb(255,255,255)"/></clipPath><g clip-path="url(#_clipPath_FbTsy3p2tUp3iX0KFmrAHhmvMsdUtsoR)"><rect x="743.176" y="152.805" width="126.679" height="12.095" transform="matrix(0.735,-0.678,0.786,0.636,88.956,604.781)" fill="rgb(0,0,0)"/><rect x="764.27" y="167.202" width="126.679" height="12.095" transform="matrix(0.735,-0.678,0.786,0.636,83.235,624.331)" fill="rgb(0,0,0)"/><rect x="805.026" y="162.342" width="126.679" height="12.095" transform="matrix(0.735,-0.678,0.786,0.636,97.855,650.197)" fill="rgb(0,0,0)"/><rect x="826.121" y="176.74" width="126.679" height="12.095" transform="matrix(0.735,-0.678,0.786,0.636,92.134,669.747)" fill="rgb(0,0,0)"/><rect x="885.922" y="152.805" width="126.679" height="12.095" transform="matrix(0.735,-0.678,0.786,0.636,126.79,701.58)" fill="rgb(0,0,0)"/><rect x="907.017" y="167.202" width="126.679" height="12.095" transform="matrix(0.735,-0.678,0.786,0.636,121.069,721.129)" fill="rgb(0,0,0)"/><rect x="947.772" y="162.342" width="126.679" height="12.095" transform="matrix(0.735,-0.678,0.786,0.636,135.69,746.996)" fill="rgb(0,0,0)"/><rect x="968.867" y="176.74" width="126.679" height="12.095" transform="matrix(0.735,-0.678,0.786,0.636,129.969,766.546)" fill="rgb(0,0,0)"/></g></g></svg>