<?xml version="1.0" encoding="UTF-8" standalone="no"?><!-- Generator: Gravit.io --><svg xmlns="http://www.w3.org/2000/svg" xmlns:xlink="http://www.w3.org/1999/xlink" style="isolation:isolate" viewBox="543 238 163.56 82.26" width="163.56pt" height="82.26pt"><g style="isolation:isolate"><path d=" M 672.574 290.265 C 671.915 291.165 671.162 292.017 670.35 292.84 L 670.35 292.84 L 670.35 292.84 Q 668.1 295.12 665.46 296.74 L 665.46 296.74 L 665.46 296.74 Q 663.48 301.6 662.49 306.19 L 662.49 306.19 L 662.49 306.19 Q 661.5 310.78 661.5 313.9 L 661.5 313.9 L 661.5 313.9 Q 662.46 311.5 663.81 308.62 L 663.81 308.62 L 663.81 308.62 Q 665.16 305.74 666.9 303.1 L 666.9 303.1 L 666.9 303.1 Q 668.64 300.46 670.68 298.78 L 670.68 298.78 L 670.68 298.78 Q 672.72 297.1 674.94 297.1 L 674.94 297.1 L 674.94 297.1 Q 677.16 297.1 678.72 298.66 L 678.72 298.66 L 678.72 298.66 Q 680.28 300.22 680.28 302.44 L 680.28 302.44 L 680.28 302.44 Q 680.28 304.36 679.29 305.71 L 679.29 305.71 L 679.29 305.71 Q 678.3 307.06 676.89 307.87 L 676.89 307.87 L 676.89 307.87 Q 675.48 308.68 674.07 309.07 L 674.07 309.07 L 674.07 309.07 Q 672.66 309.46 671.76 309.46 L 671.76 309.46 L 671.76 309.46 Q 671.82 309.94 672.12 311.2 L 672.12 311.2 L 672.12 311.2 Q 672.42 312.46 672.99 313.84 L 672.99 313.84 L 672.99 313.84 Q 673.56 315.22 674.4 316.21 L 674.4 316.21 L 674.4 316.21 Q 675.24 317.2 676.44 317.2 L 676.44 317.2 L 676.44 317.2 Q 678.18 317.2 679.74 315.88 L 679.74 315.88 L 679.74 315.88 Q 681.3 314.56 682.71 312.37 L 682.71 312.37 L 682.71 312.37 Q 684.12 310.18 685.32 307.42 L 685.32 307.42 L 685.92 308.02 L 685.92 308.02 Q 685.08 310.96 683.34 313.57 L 683.34 313.57 L 683.34 313.57 Q 681.6 316.18 679.47 317.83 L 679.47 317.83 L 679.47 317.83 Q 677.34 319.48 675.24 319.48 L 675.24 319.48 L 675.24 319.48 Q 673.56 319.48 672.36 318.34 L 672.36 318.34 L 672.36 318.34 Q 671.16 317.2 670.47 315.46 L 670.47 315.46 L 670.47 315.46 Q 669.78 313.72 669.45 311.89 L 669.45 311.89 L 669.45 311.89 Q 669.12 310.06 669.12 308.68 L 669.12 308.68 L 669.12 308.68 Q 669.78 308.68 671.04 308.35 L 671.04 308.35 L 671.04 308.35 Q 672.3 308.02 673.62 307.33 L 673.62 307.33 L 673.62 307.33 Q 674.94 306.64 675.87 305.53 L 675.87 305.53 L 675.87 305.53 Q 676.8 304.42 676.8 302.92 L 676.8 302.92 L 676.8 302.92 Q 676.8 301.66 675.9 300.94 L 675.9 300.94 L 675.9 300.94 Q 675 300.22 673.8 300.22 L 673.8 300.22 L 673.8 300.22 Q 671.94 300.22 670.32 301.51 L 670.32 301.51 L 670.32 301.51 Q 668.7 302.8 667.41 304.87 L 667.41 304.87 L 667.41 304.87 Q 666.12 306.94 665.1 309.28 L 665.1 309.28 L 665.1 309.28 Q 664.08 311.62 663.36 313.72 L 663.36 313.72 L 663.36 313.72 Q 662.64 315.82 662.16 317.2 L 662.16 317.2 L 662.16 317.2 Q 661.8 318.28 661.14 318.67 L 661.14 318.67 L 661.14 318.67 Q 660.48 319.06 659.76 319.06 L 659.76 319.06 L 659.76 319.06 Q 658.74 319.06 658.29 318.22 L 658.29 318.22 L 658.29 318.22 Q 657.84 317.38 657.75 316.09 L 657.75 316.09 L 657.75 316.09 Q 657.66 314.8 657.66 313.42 L 657.66 313.42 L 657.66 313.42 Q 657.66 310.3 658.68 306.22 L 658.68 306.22 L 658.68 306.22 Q 659.7 302.14 661.41 297.73 L 661.41 297.73 L 661.41 297.73 Q 663.12 293.32 665.16 289.18 L 665.16 289.18 L 665.16 289.18 Q 665.491 288.509 665.822 287.901 L 668.797 289.389 C 668.004 290.939 667.233 292.599 666.48 294.34 L 666.48 294.34 L 666.48 294.34 Q 668.976 292.332 670.898 289.824 L 672.574 290.265 L 672.574 290.265 Z  M 592.14 319.54 L 592.14 319.54 L 592.14 319.54 Q 590.28 319.54 589.59 317.83 L 589.59 317.83 L 589.59 317.83 Q 588.9 316.12 588.9 313.72 L 588.9 313.72 L 588.9 313.72 Q 588.9 312.52 589.02 311.11 L 589.02 311.11 L 589.02 311.11 Q 589.14 309.7 589.32 308.32 L 589.32 308.32 L 589.32 308.32 Q 588 310.96 586.47 313.42 L 586.47 313.42 L 586.47 313.42 Q 584.94 315.88 583.26 317.44 L 583.26 317.44 L 583.26 317.44 Q 581.58 319 579.72 319 L 579.72 319 L 579.72 319 Q 577.74 319 576.48 317.2 L 576.48 317.2 L 576.48 317.2 Q 575.22 315.4 575.22 312.94 L 575.22 312.94 L 575.22 312.94 Q 575.22 311.2 575.79 308.92 L 575.79 308.92 L 575.79 308.92 Q 576.36 306.64 577.2 304.42 L 577.2 304.42 L 577.2 304.42 Q 578.04 302.2 578.94 300.76 L 578.94 300.76 L 578.94 300.76 Q 579.84 299.32 580.5 299.32 L 580.5 299.32 L 580.5 299.32 Q 580.8 299.32 581.76 299.65 L 581.76 299.65 L 581.76 299.65 Q 582.72 299.98 582.72 300.52 L 582.72 300.52 L 582.72 300.52 Q 582.06 301.54 581.1 303.64 L 581.1 303.64 L 581.1 303.64 Q 580.14 305.74 579.42 308.17 L 579.42 308.17 L 579.42 308.17 Q 578.7 310.6 578.7 312.58 L 578.7 312.58 L 578.7 312.58 Q 578.7 313.06 578.82 314.05 L 578.82 314.05 L 578.82 314.05 Q 578.94 315.04 579.39 315.82 L 579.39 315.82 L 579.39 315.82 Q 579.84 316.6 580.8 316.6 L 580.8 316.6 L 580.8 316.6 Q 582.18 316.6 583.74 314.86 L 583.74 314.86 L 583.74 314.86 Q 585.3 313.12 586.86 310.48 L 586.86 310.48 L 586.86 310.48 Q 588.42 307.84 589.8 305.14 L 589.8 305.14 L 589.8 305.14 Q 590.28 302.68 590.61 301.54 L 590.61 301.54 L 590.61 301.54 Q 590.94 300.4 591.3 300.07 L 591.3 300.07 L 591.3 300.07 Q 591.66 299.74 592.2 299.74 L 592.2 299.74 L 592.2 299.74 Q 592.98 299.74 593.46 300.07 L 593.46 300.07 L 593.46 300.07 Q 593.94 300.4 593.94 301.06 L 593.94 301.06 L 593.94 301.06 Q 593.94 301.18 593.91 301.36 L 593.91 301.36 L 593.91 301.36 Q 593.88 301.54 593.82 301.72 L 593.82 301.72 L 593.82 301.72 Q 593.4 303.16 593.01 305.35 L 593.01 305.35 L 593.01 305.35 Q 592.62 307.54 592.38 309.88 L 592.38 309.88 L 592.38 309.88 Q 592.14 312.22 592.14 314.26 L 592.14 314.26 L 592.14 314.26 Q 592.14 315.64 592.44 316.42 L 592.44 316.42 L 592.44 316.42 Q 592.74 317.2 593.46 317.2 L 593.46 317.2 L 593.46 317.2 Q 594.36 317.2 595.56 316.09 L 595.56 316.09 L 595.56 316.09 Q 596.76 314.98 598.05 313.15 L 598.05 313.15 L 598.05 313.15 Q 599.34 311.32 600.57 309.16 L 600.57 309.16 L 600.57 309.16 Q 601.8 307 602.76 304.9 L 602.76 304.9 L 602.76 304.9 Q 602.76 301.78 603.21 300.13 L 603.21 300.13 L 603.21 300.13 Q 603.66 298.48 604.35 297.88 L 604.35 297.88 L 604.35 297.88 Q 605.04 297.28 605.76 297.28 L 605.76 297.28 L 605.76 297.28 Q 606.9 297.28 607.41 298.09 L 607.41 298.09 L 607.41 298.09 Q 607.92 298.9 607.92 299.56 L 607.92 299.56 L 607.92 299.56 Q 607.92 299.98 607.74 300.43 L 607.74 300.43 L 607.74 300.43 Q 607.56 300.88 607.26 301.42 L 607.26 301.42 L 607.26 301.42 Q 606.78 302.32 606.3 303.73 L 606.3 303.73 L 606.3 303.73 Q 605.82 305.14 605.82 307.6 L 605.82 307.6 L 605.82 307.6 Q 605.82 308.56 606 309.64 L 606 309.64 L 606 309.64 Q 606.18 310.72 606.78 311.44 L 606.78 311.44 L 606.78 311.44 Q 607.38 312.16 608.64 312.16 L 608.64 312.16 L 608.64 312.16 Q 609.9 312.16 611.07 311.17 L 611.07 311.17 L 611.07 311.17 Q 612.24 310.18 613.38 307.72 L 613.38 307.72 L 614.16 308.32 L 614.16 308.32 Q 612.84 311.32 611.25 312.34 L 611.25 312.34 L 611.25 312.34 Q 609.66 313.36 608.22 313.36 L 608.22 313.36 L 608.22 313.36 Q 606.36 313.36 605.07 312.1 L 605.07 312.1 L 605.07 312.1 Q 603.78 310.84 603.18 308.32 L 603.18 308.32 L 603.18 308.32 Q 601.68 311.08 599.82 313.66 L 599.82 313.66 L 599.82 313.66 Q 597.96 316.24 595.98 317.89 L 595.98 317.89 L 595.98 317.89 Q 594 319.54 592.14 319.54 Z  M 616.32 319.12 L 616.32 319.12 L 616.32 319.12 Q 614.04 319.12 612.78 317.65 L 612.78 317.65 L 612.78 317.65 Q 611.52 316.18 611.52 313.9 L 611.52 313.9 L 611.52 313.9 Q 611.52 311.98 612.33 309.61 L 612.33 309.61 L 612.33 309.61 Q 613.14 307.24 614.58 304.87 L 614.58 304.87 L 614.58 304.87 Q 616.02 302.5 617.85 300.52 L 617.85 300.52 L 617.85 300.52 Q 619.68 298.54 621.78 297.31 L 621.78 297.31 L 621.78 297.31 Q 623.88 296.08 626.04 296.08 L 626.04 296.08 L 626.04 296.08 Q 627.18 296.08 627.78 296.44 L 627.78 296.44 L 627.78 296.44 Q 628.38 296.8 628.62 297.34 L 628.62 297.34 L 628.62 297.34 Q 628.74 297.28 628.83 297.28 L 628.83 297.28 L 628.83 297.28 Q 628.92 297.28 629.04 297.28 L 629.04 297.28 L 629.04 297.28 Q 630.18 297.28 630.63 298.18 L 630.63 298.18 L 630.63 298.18 Q 631.08 299.08 631.08 299.62 L 631.08 299.62 L 631.08 299.62 Q 631.08 300.34 630.48 301.51 L 630.48 301.51 L 630.48 301.51 Q 629.88 302.68 629.31 304.12 L 629.31 304.12 L 629.31 304.12 Q 628.74 305.56 628.74 307.18 L 628.74 307.18 L 628.74 307.18 Q 628.74 308.86 629.58 309.67 L 629.58 309.67 L 629.58 309.67 Q 630.42 310.48 632.28 310.48 L 632.28 310.48 L 632.28 310.48 Q 633.48 310.48 634.83 309.31 L 634.83 309.31 L 634.83 309.31 Q 636.18 308.14 637.5 306.31 L 637.5 306.31 L 637.5 306.31 Q 638.82 304.48 639.87 302.32 L 639.87 302.32 L 639.87 302.32 Q 640.92 300.16 641.46 298.18 L 641.46 298.18 L 641.46 298.18 Q 640.86 297.58 640.86 296.74 L 640.86 296.74 L 640.86 296.74 Q 640.86 295.54 641.34 294.61 L 641.34 294.61 L 641.34 294.61 Q 641.82 293.68 642.45 293.17 L 642.45 293.17 L 642.45 293.17 Q 643.08 292.66 643.38 292.66 L 643.38 292.66 L 643.38 292.66 Q 644.04 292.66 644.13 293.23 L 644.13 293.23 L 644.13 293.23 Q 644.22 293.8 644.22 294.1 L 644.22 294.1 L 644.22 294.1 Q 644.22 294.4 643.89 295.27 L 643.89 295.27 L 643.89 295.27 Q 643.56 296.14 643.56 296.32 L 643.56 296.32 L 643.56 296.32 Q 643.56 297.16 644.49 297.85 L 644.49 297.85 L 644.49 297.85 Q 645.42 298.54 646.62 299.41 L 646.62 299.41 L 646.62 299.41 Q 647.82 300.28 648.75 301.51 L 648.75 301.51 L 648.75 301.51 Q 649.68 302.74 649.68 304.66 L 649.68 304.66 L 649.68 304.66 Q 649.68 306.46 648.93 308.32 L 648.93 308.32 L 648.93 308.32 Q 648.18 310.18 647.43 311.86 L 647.43 311.86 L 647.43 311.86 Q 646.68 313.54 646.68 314.8 L 646.68 314.8 L 646.68 314.8 Q 646.68 315.88 647.22 316.24 L 647.22 316.24 L 647.22 316.24 Q 647.76 316.6 648.48 316.6 L 648.48 316.6 L 648.48 316.6 Q 649.92 316.6 651.45 315.7 L 651.45 315.7 L 651.45 315.7 Q 652.98 314.8 654.42 313.42 L 654.42 313.42 L 654.42 313.42 Q 655.86 312.04 657 310.51 L 657 310.51 L 657 310.51 Q 658.14 308.98 658.68 307.66 L 658.68 307.66 L 659.46 308.26 L 659.46 308.26 Q 658.32 310.78 656.34 313.21 L 656.34 313.21 L 656.34 313.21 Q 654.36 315.64 651.93 317.2 L 651.93 317.2 L 651.93 317.2 Q 649.5 318.76 646.92 318.76 L 646.92 318.76 L 646.92 318.76 Q 644.88 318.76 643.71 317.68 L 643.71 317.68 L 643.71 317.68 Q 642.54 316.6 642.54 314.86 L 642.54 314.86 L 642.54 314.86 Q 642.54 313.06 643.38 311.08 L 643.38 311.08 L 643.38 311.08 Q 644.22 309.1 645.03 307.15 L 645.03 307.15 L 645.03 307.15 Q 645.84 305.2 645.84 303.64 L 645.84 303.64 L 645.84 303.64 Q 645.84 301.72 644.73 300.79 L 644.73 300.79 L 644.73 300.79 Q 643.62 299.86 642.48 299.08 L 642.48 299.08 L 642.48 299.08 Q 641.82 301.12 640.71 303.37 L 640.71 303.37 L 640.71 303.37 Q 639.6 305.62 638.22 307.57 L 638.22 307.57 L 638.22 307.57 Q 636.84 309.52 635.25 310.72 L 635.25 310.72 L 635.25 310.72 Q 633.66 311.92 631.92 311.92 L 631.92 311.92 L 631.92 311.92 Q 630.24 311.92 628.89 311.23 L 628.89 311.23 L 628.89 311.23 Q 627.54 310.54 626.82 309.16 L 626.82 309.16 L 626.82 309.16 Q 624.96 313.54 622.23 316.33 L 622.23 316.33 L 622.23 316.33 Q 619.5 319.12 616.32 319.12 Z  M 617.64 316.54 L 617.64 316.54 L 617.64 316.54 Q 619.02 316.54 620.58 315.31 L 620.58 315.31 L 620.58 315.31 Q 622.14 314.08 623.64 311.98 L 623.64 311.98 L 623.64 311.98 Q 625.14 309.88 626.22 307.3 L 626.22 307.3 L 626.22 307.3 Q 625.86 305.86 625.86 303.88 L 625.86 303.88 L 625.86 303.88 Q 625.86 302.5 626.01 301.48 L 626.01 301.48 L 626.01 301.48 Q 626.16 300.46 626.43 299.68 L 626.43 299.68 L 626.43 299.68 Q 626.7 298.9 627 298.42 L 627 298.42 L 627 298.42 Q 624.96 298.42 623.19 299.53 L 623.19 299.53 L 623.19 299.53 Q 621.42 300.64 619.98 302.41 L 619.98 302.41 L 619.98 302.41 Q 618.54 304.18 617.52 306.22 L 617.52 306.22 L 617.52 306.22 Q 616.5 308.26 615.93 310.18 L 615.93 310.18 L 615.93 310.18 Q 615.36 312.1 615.36 313.48 L 615.36 313.48 L 615.36 313.48 Q 615.36 314.86 615.96 315.7 L 615.96 315.7 L 615.96 315.7 Q 616.56 316.54 617.64 316.54 Z  M 690.48 320.26 L 690.48 320.26 L 690.48 320.26 Q 687.66 320.26 686.01 319.03 L 686.01 319.03 L 686.01 319.03 Q 684.36 317.8 683.67 316 L 683.67 316 L 683.67 316 Q 682.98 314.2 682.98 312.4 L 682.98 312.4 L 682.98 312.4 Q 682.98 310.6 683.46 309.64 L 683.46 309.64 L 683.46 309.64 Q 683.94 308.68 684.63 308.2 L 684.63 308.2 L 684.63 308.2 Q 685.32 307.72 685.95 307.48 L 685.95 307.48 L 685.95 307.48 Q 686.58 307.24 686.82 307 L 686.82 307 L 686.82 307 Q 688.62 305.02 690.12 302.86 L 690.12 302.86 L 690.12 302.86 Q 691.62 300.7 692.76 298.3 L 692.76 298.3 L 692.76 297.58 L 692.76 297.58 Q 692.76 295.36 693.51 294.43 L 693.51 294.43 L 693.51 294.43 Q 694.26 293.5 695.1 293.5 L 695.1 293.5 L 695.1 293.5 Q 695.58 293.5 695.82 293.74 L 695.82 293.74 L 695.82 293.74 Q 696.06 293.98 696.06 294.28 L 696.06 294.28 L 696.06 294.28 Q 696.06 294.58 695.88 295.24 L 695.88 295.24 L 695.88 295.24 Q 695.7 295.9 695.7 296.92 L 695.7 296.92 L 695.7 296.92 Q 695.7 298.9 696.48 301.21 L 696.48 301.21 L 696.48 301.21 Q 697.26 303.52 698.04 306.07 L 698.04 306.07 L 698.04 306.07 Q 698.82 308.62 698.82 311.38 L 698.82 311.38 L 698.82 311.38 Q 698.82 312.16 698.73 312.91 L 698.73 312.91 L 698.73 312.91 Q 698.64 313.66 698.46 314.32 L 698.46 314.32 L 698.46 314.32 Q 700.56 313.96 702.42 312.43 L 702.42 312.43 L 702.42 312.43 Q 704.28 310.9 706.02 307.54 L 706.02 307.54 L 706.56 308.14 L 706.56 308.14 Q 705.42 311.44 703.14 313.15 L 703.14 313.15 L 703.14 313.15 Q 700.86 314.86 698.16 315.28 L 698.16 315.28 L 698.16 315.28 Q 697.2 317.86 695.13 319.06 L 695.13 319.06 L 695.13 319.06 Q 693.06 320.26 690.48 320.26 Z  M 690.6 318.16 L 690.6 318.16 L 690.6 318.16 Q 691.32 318.16 692.52 317.68 L 692.52 317.68 L 692.52 317.68 Q 693.72 317.2 694.38 315.22 L 694.38 315.22 L 694.38 315.22 Q 691.86 314.74 689.91 313.24 L 689.91 313.24 L 689.91 313.24 Q 687.96 311.74 687 310.24 L 687 310.24 L 687 310.24 Q 685.68 310.3 685.68 312.34 L 685.68 312.34 L 685.68 312.34 Q 685.68 314.5 686.97 316.33 L 686.97 316.33 L 686.97 316.33 Q 688.26 318.16 690.6 318.16 Z  M 694.68 314.26 L 694.68 314.26 L 694.68 314.26 Q 694.8 313.66 694.86 313 L 694.86 313 L 694.86 313 Q 694.92 312.34 694.92 311.44 L 694.92 311.44 L 694.92 311.44 Q 694.92 308.62 694.23 305.83 L 694.23 305.83 L 694.23 305.83 Q 693.54 303.04 693.06 300.58 L 693.06 300.58 L 693.06 300.58 Q 691.68 302.86 690.15 304.93 L 690.15 304.93 L 690.15 304.93 Q 688.62 307 687.24 308.38 L 687.24 308.38 L 687.24 308.38 Q 688.14 310.3 690.03 311.98 L 690.03 311.98 L 690.03 311.98 Q 691.92 313.66 694.68 314.26 Z  M 543 286.42 L 543 286.42 L 543 286.42 Q 543.36 285.58 544.98 282.01 L 544.98 282.01 L 544.98 282.01 Q 546.6 278.44 549.21 272.71 L 549.21 272.71 L 549.21 272.71 Q 551.82 266.98 555.09 259.69 L 555.09 259.69 L 555.09 259.69 Q 558.36 252.4 562.02 244.24 L 562.02 244.24 L 562.02 244.24 Q 562.2 243.82 562.41 243.13 L 562.41 243.13 L 562.41 243.13 Q 562.62 242.44 562.62 241.78 L 562.62 241.78 L 562.62 241.78 Q 562.62 241.12 562.23 240.67 L 562.23 240.67 L 562.23 240.67 Q 561.84 240.22 560.58 240.22 L 560.58 240.22 L 560.58 240.22 Q 558.06 240.22 556.41 241.93 L 556.41 241.93 L 556.41 241.93 Q 554.76 243.64 553.95 246.16 L 553.95 246.16 L 553.95 246.16 Q 553.14 248.68 553.14 251.14 L 553.14 251.14 L 553.14 251.14 Q 553.14 251.74 553.17 252.16 L 553.17 252.16 L 553.17 252.16 Q 553.2 252.58 553.26 253 L 553.26 253 L 553.26 253 Q 552.12 253 551.43 252.19 L 551.43 252.19 L 551.43 252.19 Q 550.74 251.38 550.41 250.21 L 550.41 250.21 L 550.41 250.21 Q 550.08 249.04 550.08 248.08 L 550.08 248.08 L 550.08 248.08 Q 550.08 246.1 551.16 244.3 L 551.16 244.3 L 551.16 244.3 Q 552.24 242.5 553.95 241.06 L 553.95 241.06 L 553.95 241.06 Q 555.66 239.62 557.73 238.81 L 557.73 238.81 L 557.73 238.81 Q 559.8 238 561.78 238 L 561.78 238 L 561.78 238 Q 563.76 238 565.11 239.11 L 565.11 239.11 L 565.11 239.11 Q 566.46 240.22 567.15 243.1 L 567.15 243.1 L 567.15 243.1 Q 567.84 245.98 567.84 251.44 L 567.84 251.44 L 567.84 251.44 Q 567.84 255.16 567.57 259.36 L 567.57 259.36 L 567.57 259.36 Q 567.3 263.56 567 267.64 L 567 267.64 L 567 267.64 Q 566.7 271.72 566.58 275.08 L 566.58 275.08 L 566.58 275.08 Q 567.54 271.42 569.31 267.28 L 569.31 267.28 L 569.31 267.28 Q 571.08 263.14 573.21 259.03 L 573.21 259.03 L 573.21 259.03 Q 575.34 254.92 577.44 251.32 L 577.44 251.32 L 577.44 251.32 Q 579.54 247.72 581.22 245.08 L 581.22 245.08 L 581.22 245.08 Q 582.9 242.44 583.68 241.24 L 583.68 241.24 L 583.68 241.24 Q 584.52 240.04 585.12 239.41 L 585.12 239.41 L 585.12 239.41 Q 585.72 238.78 586.68 238.78 L 586.68 238.78 L 586.68 238.78 Q 587.52 238.78 588.6 239.2 L 588.6 239.2 L 588.6 239.2 Q 588.18 240.28 587.43 242.41 L 587.43 242.41 L 587.43 242.41 Q 586.68 244.54 585.9 247.6 L 585.9 247.6 L 585.9 247.6 Q 584.94 251.26 583.98 255.91 L 583.98 255.91 L 583.98 255.91 Q 583.02 260.56 582.21 265.36 L 582.21 265.36 L 582.21 265.36 Q 581.4 270.16 580.92 274.39 L 580.92 274.39 L 580.92 274.39 Q 580.44 278.62 580.44 281.5 L 580.44 281.5 L 580.44 281.5 Q 580.44 282.82 580.56 283.54 L 580.56 283.54 L 580.56 283.54 Q 580.68 284.26 580.89 284.83 L 580.89 284.83 L 580.89 284.83 Q 581.1 285.4 581.34 286.42 L 581.34 286.42 L 581.34 286.42 Q 579.3 286.42 578.22 285.76 L 578.22 285.76 L 578.22 285.76 Q 577.14 285.1 576.78 283.63 L 576.78 283.63 L 576.78 283.63 Q 576.42 282.16 576.42 279.7 L 576.42 279.7 L 576.42 279.7 Q 576.42 272.56 578.25 264.37 L 578.25 264.37 L 578.25 264.37 Q 580.08 256.18 582.42 247.36 L 582.42 247.36 L 582.42 247.36 Q 580.68 249.58 578.79 252.97 L 578.79 252.97 L 578.79 252.97 Q 576.9 256.36 575.01 260.29 L 575.01 260.29 L 575.01 260.29 Q 573.12 264.22 571.41 268.15 L 571.41 268.15 L 571.41 268.15 Q 569.7 272.08 568.38 275.44 L 568.38 275.44 L 568.38 275.44 Q 567.06 278.8 566.34 281.02 L 566.34 281.02 L 566.34 281.02 Q 565.98 281.14 565.86 281.2 L 565.86 281.2 L 565.86 281.2 Q 565.74 281.26 565.44 281.26 L 565.44 281.26 L 565.44 281.26 Q 563.82 281.26 563.31 279.34 L 563.31 279.34 L 563.31 279.34 Q 562.8 277.42 562.8 273.94 L 562.8 273.94 L 562.8 273.94 Q 562.8 271.48 562.95 268.09 L 562.95 268.09 L 562.95 268.09 Q 563.1 264.7 563.28 261.1 L 563.28 261.1 L 563.28 261.1 Q 563.46 257.5 563.61 254.17 L 563.61 254.17 L 563.61 254.17 Q 563.76 250.84 563.76 248.44 L 563.76 248.44 L 563.76 248.44 Q 563.76 247.24 563.73 246.46 L 563.73 246.46 L 563.73 246.46 Q 563.7 245.68 563.64 245.08 L 563.64 245.08 L 563.64 245.08 Q 558.84 256.24 555.6 264.13 L 555.6 264.13 L 555.6 264.13 Q 552.36 272.02 550.17 276.94 L 550.17 276.94 L 550.17 276.94 Q 547.98 281.86 546.3 284.14 L 546.3 284.14 L 546.3 284.14 Q 544.62 286.42 543 286.42 Z  M 590.58 298 L 590.58 298 L 590.58 298 Q 589.08 298 587.94 297.19 L 587.94 297.19 L 587.94 297.19 Q 586.8 296.38 586.8 294.82 L 586.8 294.82 L 586.8 294.82 Q 586.8 292.9 587.76 291.4 L 587.76 291.4 L 587.76 291.4 Q 588.72 289.9 590.34 288.64 L 590.34 288.64 L 590.34 288.64 Q 591.96 287.38 594.06 286.24 L 594.06 286.24 L 594.06 286.24 Q 596.16 285.1 598.44 283.96 L 598.44 283.96 L 598.44 283.96 Q 599.28 281.74 600.15 279.01 L 600.15 279.01 L 600.15 279.01 Q 601.02 276.28 601.8 272.98 L 601.8 272.98 L 601.8 272.98 Q 599.88 276.1 597.69 278.35 L 597.69 278.35 L 597.69 278.35 Q 595.5 280.6 593.04 280.6 L 593.04 280.6 L 593.04 280.6 Q 591.9 280.6 590.79 280.09 L 590.79 280.09 L 590.79 280.09 Q 589.68 279.58 588.96 278.5 L 588.96 278.5 L 588.96 278.5 Q 588.24 277.42 588.24 275.74 L 588.24 275.74 L 588.24 275.74 Q 588.24 274.06 588.81 271.84 L 588.81 271.84 L 588.81 271.84 Q 589.38 269.62 590.22 267.52 L 590.22 267.52 L 590.22 267.52 Q 591.06 265.42 591.96 264.04 L 591.96 264.04 L 591.96 264.04 Q 592.86 262.66 593.52 262.66 L 593.52 262.66 L 593.52 262.66 Q 593.76 262.66 594.39 262.84 L 594.39 262.84 L 594.39 262.84 Q 595.02 263.02 595.59 263.35 L 595.59 263.35 L 595.59 263.35 Q 596.16 263.68 596.16 264.04 L 596.16 264.04 L 596.16 264.04 Q 595.62 264.82 594.96 266.26 L 594.96 266.26 L 594.96 266.26 Q 594.3 267.7 593.67 269.47 L 593.67 269.47 L 593.67 269.47 Q 593.04 271.24 592.62 272.92 L 592.62 272.92 L 592.62 272.92 Q 592.2 274.6 592.2 275.8 L 592.2 275.8 L 592.2 275.8 Q 592.2 276.88 592.68 277.54 L 592.68 277.54 L 592.68 277.54 Q 593.16 278.2 594.36 278.2 L 594.36 278.2 L 594.36 278.2 Q 595.5 278.2 596.91 277.09 L 596.91 277.09 L 596.91 277.09 Q 598.32 275.98 599.73 274.24 L 599.73 274.24 L 599.73 274.24 Q 601.14 272.5 602.34 270.52 L 602.34 270.52 L 602.34 270.52 Q 602.52 269.86 602.67 269.17 L 602.67 269.17 L 602.67 269.17 Q 602.82 268.48 602.94 267.76 L 602.94 267.76 L 602.94 267.76 Q 603.12 266.92 603.81 265.81 L 603.81 265.81 L 603.81 265.81 Q 604.5 264.7 606 264.7 L 606 264.7 L 606 264.7 Q 606.3 264.7 606.6 264.73 L 606.6 264.73 L 606.6 264.73 Q 606.9 264.76 607.26 264.88 L 607.26 264.88 L 607.26 264.88 Q 607.26 265.84 606.69 268.45 L 606.69 268.45 L 606.69 268.45 Q 606.12 271.06 605.07 274.54 L 605.07 274.54 L 605.07 274.54 Q 604.02 278.02 602.58 281.68 L 602.58 281.68 L 602.58 281.68 Q 605.4 280.6 608.1 278.11 L 608.1 278.11 L 608.1 278.11 Q 610.8 275.62 612.48 271.48 L 612.48 271.48 L 613.26 272.08 L 613.26 272.08 Q 612.36 274.96 610.53 277.09 L 610.53 277.09 L 610.53 277.09 Q 608.7 279.22 606.42 280.75 L 606.42 280.75 L 606.42 280.75 Q 604.14 282.28 601.92 283.3 L 601.92 283.3 L 601.92 283.3 Q 600.36 287.14 598.53 290.5 L 598.53 290.5 L 598.53 290.5 Q 596.7 293.86 594.69 295.93 L 594.69 295.93 L 594.69 295.93 Q 592.68 298 590.58 298 Z  M 590.28 296.08 L 590.28 296.08 L 590.28 296.08 Q 591.18 296.08 593.31 293.71 L 593.31 293.71 L 593.31 293.71 Q 595.44 291.34 597.84 285.4 L 597.84 285.4 L 597.84 285.4 Q 595.38 286.72 593.28 288.01 L 593.28 288.01 L 593.28 288.01 Q 591.18 289.3 589.92 290.8 L 589.92 290.8 L 589.92 290.8 Q 588.66 292.3 588.66 294.28 L 588.66 294.28 L 588.66 294.28 Q 588.66 294.76 589.02 295.42 L 589.02 295.42 L 589.02 295.42 Q 589.38 296.08 590.28 296.08 Z " fill="rgb(187,187,187)"/><rect x="607.74" y="271.13" width="72.54" height="16" transform="matrix(1,0,0,1,0,0)" fill="rgb(0,0,0)"/><path d=" M 672.574 290.265 Q 673.493 289.163 674.25 287.98 L 674.25 287.98 L 674.25 287.98 Q 675.9 285.4 676.8 282.85 L 676.8 282.85 L 676.8 282.85 Q 677.7 280.3 677.7 278.26 L 677.7 278.26 L 677.7 278.26 Q 677.7 276.64 677.19 275.5 L 677.19 275.5 L 677.19 275.5 Q 676.68 274.36 675.84 274.36 L 675.84 274.36 L 675.84 274.36 Q 674.76 274.36 673.02 276.34 L 673.02 276.34 L 673.02 276.34 Q 671.28 278.32 669.24 281.68 L 669.24 281.68 L 669.24 281.68 C 668.1 283.557 666.961 285.616 665.822 287.901 L 668.797 289.389 Q 669.428 288.079 670.08 286.87 L 670.08 286.87 L 670.08 286.87 Q 671.94 283.42 673.41 281.32 L 673.41 281.32 L 673.41 281.32 Q 674.88 279.22 675.48 279.22 L 675.48 279.22 L 675.48 279.22 Q 675.6 279.22 675.63 279.34 L 675.63 279.34 L 675.63 279.34 Q 675.66 279.46 675.66 279.76 L 675.66 279.76 L 675.66 279.76 Q 675.66 281.26 674.52 283.87 L 674.52 283.87 L 674.52 283.87 Q 673.38 286.48 671.31 289.3 L 671.31 289.3 L 671.31 289.3 C 671.178 289.48 671.044 289.657 670.898 289.824 L 672.574 290.265 L 672.574 290.265 Z " fill="rgb(187,187,187)"/><g clip-path="url(#_clipPath_mU9Vn7tggUcxvVCt5V5ciO2jSk5nHNGf)"><text transform="matrix(1,0,0,1,611.25,282.715)" style="font-family:'Montserrat';font-weight:400;font-size:10px;font-style:normal;font-variant-ligatures:none;letter-spacing:3;fill:#ffffff;stroke:none;">elaina</text></g><defs><clipPath id="_clipPath_mU9Vn7tggUcxvVCt5V5ciO2jSk5nHNGf"><rect x="0" y="0" width="54.572" height="12.19" transform="matrix(1,0,0,1,611.25,273.035)"/></clipPath></defs></g></svg>